<?xml version="1.0" encoding="utf-8"?>
<!-- Generator: Adobe Illustrator 16.0.0, SVG Export Plug-In . SVG Version: 6.00 Build 0)  -->
<!DOCTYPE svg PUBLIC "-//W3C//DTD SVG 1.1//EN" "http://www.w3.org/Graphics/SVG/1.1/DTD/svg11.dtd">
<svg version="1.1" id="Layer_1" xmlns="http://www.w3.org/2000/svg" xmlns:xlink="http://www.w3.org/1999/xlink" x="0px" y="0px"
	 width="15.044px" height="12.887px" viewBox="0 0 15.044 12.887" enable-background="new 0 0 15.044 12.887" xml:space="preserve">
<g>
	<path fill-rule="evenodd" clip-rule="evenodd" fill="#f50514" d="M6.448,0C7.852,0.002,9.12,0.423,10.26,1.242
		c0.113,0.082,0.128,0.14,0.04,0.25c-0.114,0.146-0.218,0.303-0.317,0.461c-0.063,0.102-0.11,0.118-0.218,0.038
		c-1.141-0.847-2.428-1.22-3.836-1.075c-1.907,0.198-3.373,1.143-4.316,2.81c-1.847,3.262,0.006,7.354,3.669,8.155
		c3.114,0.682,6.185-1.438,6.662-4.601c0.162-1.071,0.024-2.105-0.418-3.095c-0.048-0.104-0.042-0.174,0.04-0.252
		c0.15-0.144,0.298-0.291,0.438-0.445c0.09-0.099,0.133-0.098,0.195,0.028c0.348,0.693,0.58,1.423,0.659,2.194
		c0.186,1.775-0.265,3.38-1.387,4.771c-1.114,1.379-2.563,2.185-4.332,2.369c-3.26,0.34-6.206-1.754-6.964-4.928
		C-0.68,4.352,1.683,0.746,5.3,0.101C5.681,0.033,6.061-0.005,6.448,0z"/>
	<path fill-rule="evenodd" clip-rule="evenodd" fill="#f50514" d="M6.854,10.009C6.512,9.625,6.178,9.251,5.846,8.876
		C4.938,7.855,4.032,6.833,3.122,5.814C3.041,5.725,3.026,5.681,3.139,5.602c0.409-0.282,0.81-0.573,1.209-0.867
		C4.443,4.666,4.492,4.66,4.576,4.757C5.249,5.536,5.93,6.308,6.61,7.083c0.037,0.044,0.078,0.086,0.121,0.133
		c0.23-0.342,0.45-0.68,0.685-1.009c1.225-1.712,2.637-3.246,4.344-4.492c0.956-0.7,1.982-1.271,3.105-1.661
		c0.173-0.06,0.158-0.057,0.177,0.115c0.018,0.175-0.049,0.256-0.206,0.336c-1.275,0.654-2.383,1.535-3.397,2.538
		C9.545,4.914,8.135,7.109,7.07,9.536C7.007,9.677,6.946,9.821,6.884,9.961C6.88,9.971,6.873,9.978,6.854,10.009z"/>
</g>
</svg>
