<?xml version="1.0" encoding="utf-8"?>
<!-- Generator: Adobe Illustrator 16.0.0, SVG Export Plug-In . SVG Version: 6.00 Build 0)  -->
<!DOCTYPE svg PUBLIC "-//W3C//DTD SVG 1.1//EN" "http://www.w3.org/Graphics/SVG/1.1/DTD/svg11.dtd">
<svg version="1.1" id="Capa_1" xmlns="http://www.w3.org/2000/svg" xmlns:xlink="http://www.w3.org/1999/xlink" x="0px" y="0px"
	 width="364.118px" height="322.928px" viewBox="0 0 364.118 322.928" enable-background="new 0 0 364.118 322.928"
	 xml:space="preserve">
<g>
	<linearGradient id="SVGID_1_" gradientUnits="userSpaceOnUse" x1="300.8257" y1="261.3391" x2="315.0483" y2="261.3391">
		<stop  offset="0" style="stop-color:#2b70fa"/>
		<stop  offset="1" style="stop-color:#2b70fa"/>
	</linearGradient>
	<circle fill="url(#SVGID_1_)" cx="307.937" cy="261.339" r="7.111"/>
	<linearGradient id="SVGID_2_" gradientUnits="userSpaceOnUse" x1="0.002" y1="254.2297" x2="364.1177" y2="254.2297">
		<stop  offset="0" style="stop-color:#2b70fa"/>
		<stop  offset="1" style="stop-color:#2b70fa"/>
	</linearGradient>
	<path fill="url(#SVGID_2_)" d="M7.114,294.763h23.084c11.246,0,25.777,4.941,42.604,10.662
		c23.77,8.083,53.353,18.144,87.138,18.494c36.483,0.373,69.264-10.559,100.323-29.703c7.49-4.614,14.955-9.026,22.189-13.108
		c3.42-1.933,4.629-6.271,2.697-9.689c-1.93-3.42-6.27-4.627-9.688-2.697c-7.393,4.173-15.018,8.677-22.662,13.39
		c-30.65,18.891-60.949,27.918-92.713,27.588c-31.511-0.328-58.709-9.578-82.707-17.738c-18.023-6.127-33.587-11.42-47.184-11.42
		H14.225v-49.781h7.78c29.091,0,49.236-11.256,65.424-20.299c11.242-6.279,20.95-11.703,30.625-11.703
		c10.505,0,16.444,3.847,23.965,8.72c8.865,5.741,18.912,12.25,37.291,13.272c46.965,2.613,57.131,11.504,57.131,13.566
		c0,1.836-4.223,3.766-4.842,4.229c-9.35,4.711-33.037,9.992-92.211,9.992c-3.927,0-7.111,3.184-7.111,7.111
		c0,3.927,3.185,7.11,7.111,7.11c81.543,0,92.415-9.541,103.165-13.368c11.822-4.212,26.535-9.453,37.096-15.834
		c16.678-10.089,33.998-8.646,45.592-5.656c8.137,2.096,14.844,5.299,19.42,8.153c-3.768,1.457-6.904,2.666-10.83,4.253
		c-3.645,1.473-5.402,5.616-3.932,9.258c1.473,3.643,5.615,5.401,9.26,3.93c3.656-1.477,6.76-2.676,9.498-3.736
		c9.984-3.858,13.721-5.305,15.113-9.836c0.715-2.315,0.32-4.807-1.08-6.834c-8.326-12.022-52.342-34.725-90.398-11.703
		c-6.025,3.642-13.986,7.007-21.895,10.011c-2.702-14.232-25.771-22.371-70.294-24.849c-14.607-0.813-22.255-5.768-30.35-11.012
		c-8.353-5.41-16.99-11.004-31.698-11.004c-13.379,0-25.126,6.563-37.563,13.512c-15.514,8.668-33.099,18.492-58.486,18.492H7.114
		c-3.927,0-7.112,3.184-7.112,7.111v64.004C0.002,291.578,3.187,294.763,7.114,294.763L7.114,294.763z"/>
	<linearGradient id="SVGID_3_" gradientUnits="userSpaceOnUse" x1="132.353" y1="97.7659" x2="325.0796" y2="97.7659">
		<stop  offset="0" style="stop-color:#2b70fa"/>
		<stop  offset="1" style="stop-color:#2b70fa"/>
	</linearGradient>
	<path fill="url(#SVGID_3_)" d="M264.882,21.281c26.328,12.499,45.238,38.102,48.1,68.421h12.098C320.966,40.03,279.437,1,228.716,1
		c-1.814,0-3.549,0.161-5.362,0.282l30.764,30.764L264.882,21.281z M214.443,15.072c-4.717-4.717-12.378-4.717-17.096,0
		l-51.325,51.326c-4.717,4.717-4.717,12.378,0,17.095l96.928,96.927c4.718,4.717,12.377,4.717,17.095,0l51.326-51.326
		c4.717-4.717,4.717-12.378,0-17.095L214.443,15.072z M251.537,171.873l-96.968-96.928l51.326-51.326l96.927,96.927L251.537,171.873
		z M192.55,174.252c-26.328-12.5-45.238-38.102-48.102-68.422h-12.096c4.112,49.672,45.641,88.701,96.361,88.701
		c1.814,0,3.549-0.16,5.362-0.281l-30.763-30.764L192.55,174.252L192.55,174.252z"/>
</g>
</svg>
