<?xml version="1.0" encoding="utf-8"?>
<!-- Generator: Adobe Illustrator 17.0.0, SVG Export Plug-In . SVG Version: 6.00 Build 0)  -->
<!DOCTYPE svg PUBLIC "-//W3C//DTD SVG 1.1//EN" "http://www.w3.org/Graphics/SVG/1.1/DTD/svg11.dtd">
<svg version="1.1" id="Layer_1" xmlns="http://www.w3.org/2000/svg" xmlns:xlink="http://www.w3.org/1999/xlink" x="0px" y="0px"
	 width="175.662px" height="21.355px" viewBox="0 0 175.662 21.355" enable-background="new 0 0 175.662 21.355"
	 xml:space="preserve">
<g>
	<g>
		<path fill="#F50514" d="M0,5.397V3.25C0,1.163,1.355,0,3.442,0c2.099,0,3.454,1.163,3.454,3.25v2.147
			c0,2.087-1.355,3.238-3.454,3.238C1.355,8.635,0,7.484,0,5.397z M1.919,3.334v1.979c0,1.02,0.492,1.691,1.523,1.691
			c1.043,0,1.535-0.671,1.535-1.691V3.334c0-1.031-0.492-1.703-1.535-1.703C2.411,1.631,1.919,2.303,1.919,3.334z"/>
		<path fill="#F50514" d="M10.547,2.95v5.565H8.736V0.12h2.23l2.435,5.565V0.12h1.811v8.396h-2.23L10.547,2.95z"/>
		<path fill="#F50514" d="M17.375,0.12h5.577v1.631h-3.706V3.37h3.106v1.631h-3.106v1.883h3.706v1.631h-5.577V0.12z"/>
		<path fill="#F50514" d="M26.566,5.589v2.926h-1.871V0.12h2.95c1.907,0,3.07,0.912,3.07,2.531v0.42
			c0,1.619-1.271,2.519-3.034,2.519H26.566z M26.566,1.751v2.207h0.936c0.875,0,1.295-0.384,1.295-0.971V2.734
			c0-0.6-0.42-0.983-1.295-0.983H26.566z"/>
		<path fill="#F50514" d="M32.171,0.12h1.871v6.765h3.466v1.631h-5.337V0.12z"/>
		<path fill="#F50514" d="M45.032,0.12v5.517c0,1.931-1.259,2.999-3.214,2.999c-1.943,0-3.202-1.067-3.202-2.999V0.12h1.919v5.433
			c0,0.875,0.42,1.451,1.283,1.451c0.875,0,1.295-0.576,1.295-1.451V0.12H45.032z"/>
		<path fill="#F50514" d="M48.634,2.327c0,0.479,0.252,0.636,0.959,0.911l0.863,0.336c1.691,0.66,2.183,1.271,2.183,2.567
			c0,1.607-0.924,2.495-2.938,2.495c-1.811,0-2.975-0.744-3.19-2.615h1.847c0.168,0.731,0.468,0.983,1.331,0.983
			c0.756,0,1.032-0.24,1.032-0.768c0-0.576-0.252-0.744-1.116-1.067l-0.779-0.288c-1.523-0.564-2.111-1.176-2.111-2.495
			C46.715,0.995,47.627,0,49.534,0S52.4,1.019,52.46,2.614h-1.847c-0.072-0.647-0.336-0.983-1.08-0.983
			C48.874,1.631,48.634,1.907,48.634,2.327z"/>
		<path fill="#232323" d="M58.546,1.691v6.824h-0.911V0.12h1.163l3.035,5.697l3.07-5.697h1.067v8.396h-0.924V1.691L62.181,6.92
			h-0.756L58.546,1.691z"/>
		<path fill="#232323" d="M67.859,5.565V3.082C67.859,1.055,69.083,0,71.014,0c1.919,0,3.142,1.055,3.142,3.07v2.495
			c0,2.015-1.223,3.07-3.142,3.07C69.083,8.635,67.859,7.592,67.859,5.565z M68.819,3.082v2.495c0,1.355,0.695,2.243,2.195,2.243
			c1.487,0,2.195-0.887,2.195-2.267V3.07c0-1.368-0.708-2.255-2.195-2.255C69.514,0.815,68.819,1.703,68.819,3.082z"/>
		<path fill="#232323" d="M76.043,0.12h2.47c1.787,0,2.723,0.696,2.723,2.075V2.53c0,0.756-0.42,1.271-1.115,1.559
			c0.971,0.264,1.523,0.876,1.523,1.871v0.312c0,1.487-1.139,2.243-2.794,2.243h-2.806V0.12z M76.979,0.935V3.79h1.583
			c1.151,0,1.715-0.516,1.715-1.259V2.219c0-0.852-0.563-1.284-1.787-1.284H76.979z M76.979,4.545V7.7h1.811
			c1.271,0,1.907-0.576,1.907-1.439V5.949c0-0.864-0.636-1.403-1.907-1.403H76.979z"/>
		<path fill="#232323" d="M83.339,0.12h0.935v8.396h-0.935V0.12z"/>
		<path fill="#232323" d="M86.435,0.12h0.936V7.7h4.006v0.815h-4.941V0.12z"/>
		<path fill="#232323" d="M92.591,0.12h5.277v0.815h-4.342v2.831h3.61v0.804h-3.61V7.7h4.342v0.815h-5.277V0.12z"/>
		<path fill="#232323" d="M102.191,5.565V3.082c0-2.027,1.224-3.082,3.082-3.082c1.823,0,2.782,1.115,2.927,2.722h-0.912
			c-0.144-1.199-0.768-1.907-2.003-1.907c-1.438,0-2.135,0.887-2.135,2.267v2.495c0,1.355,0.696,2.243,2.111,2.243
			c1.224,0,1.931-0.611,2.026-1.907h0.912c-0.097,1.751-1.199,2.723-2.902,2.723C103.402,8.635,102.191,7.592,102.191,5.565z"/>
		<path fill="#232323" d="M114.32,6.333h-3.598l-0.804,2.183h-0.983l3.118-8.396h0.983l3.095,8.396h-1.02L114.32,6.333z
			 M112.51,1.283l-1.535,4.246h3.07L112.51,1.283z"/>
		<path fill="#232323" d="M118.366,8.515h-0.936V0.12h2.291c2.075,0,2.95,0.84,2.95,2.279V2.89c0,1.067-0.636,1.859-1.906,2.111
			l2.219,3.514h-1.056l-2.099-3.37h-1.464V8.515z M118.366,0.935V4.33h1.344c1.379,0,2.003-0.576,2.003-1.463V2.422
			c0-0.899-0.528-1.487-2.016-1.487H118.366z"/>
		<path fill="#232323" d="M124.414,0.12h5.277v0.815h-4.342v2.831h3.61v0.804h-3.61V7.7h4.342v0.815h-5.277V0.12z"/>
		<path fill="#232323" d="M136.39,4.665l-1.164,1.403v2.447h-0.936V0.12h0.936v4.666l3.79-4.666h1.092l-3.106,3.778l3.418,4.618
			h-1.176L136.39,4.665z"/>
		<path fill="#232323" d="M141.586,0.12h5.277v0.815h-4.342v2.831h3.61v0.804h-3.61V7.7h4.342v0.815h-5.277V0.12z"/>
		<path fill="#232323" d="M149.277,8.515h-0.936V0.12h2.291c2.075,0,2.95,0.84,2.95,2.279V2.89c0,1.067-0.636,1.859-1.907,2.111
			l2.22,3.514h-1.056l-2.099-3.37h-1.464V8.515z M149.277,0.935V4.33h1.344c1.379,0,2.003-0.576,2.003-1.463V2.422
			c0-0.899-0.528-1.487-2.016-1.487H149.277z"/>
		<path fill="#232323" d="M159.847,6.333h-3.598l-0.804,2.183h-0.983l3.118-8.396h0.983l3.095,8.396h-1.02L159.847,6.333z
			 M158.036,1.283l-1.535,4.246h3.07L158.036,1.283z"/>
		<path fill="#232323" d="M162.957,0.12h0.936V7.7h4.006v0.815h-4.941V0.12z"/>
		<path fill="#232323" d="M173.851,6.333h-3.598l-0.804,2.183h-0.983l3.118-8.396h0.983l3.095,8.396h-1.02L173.851,6.333z
			 M172.04,1.283l-1.535,4.246h3.07L172.04,1.283z"/>
	</g>
	<g>
		<path d="M40.28,18.376l-0.873,1.053v1.837h-0.703v-6.302h0.703v3.502l2.845-3.502h0.819L40.739,17.8l2.566,3.466h-0.882
			L40.28,18.376z"/>
		<path d="M45.013,19.411v-0.685c0-1.287,0.738-1.944,1.882-1.944c1.143,0,1.891,0.657,1.891,1.944v0.685
			c0,1.287-0.748,1.944-1.891,1.944C45.751,21.355,45.013,20.698,45.013,19.411z M45.733,18.727v0.676
			c0,0.819,0.36,1.341,1.162,1.341s1.17-0.521,1.17-1.341v-0.676c0-0.801-0.369-1.332-1.17-1.332S45.733,17.926,45.733,18.727z"/>
		<path d="M54.113,19.897h0.675c-0.135,0.963-0.765,1.458-1.747,1.458c-1.107,0-1.836-0.657-1.836-1.936v-0.684
			c0-1.297,0.738-1.954,1.846-1.954c1.063,0,1.639,0.585,1.692,1.468h-0.684c-0.081-0.559-0.405-0.855-1.008-0.855
			c-0.783,0-1.125,0.504-1.125,1.351v0.657c0,0.837,0.36,1.341,1.134,1.341C53.698,20.743,54.005,20.474,54.113,19.897z"/>
		<path d="M57.982,21.266h-0.711v-6.572h0.711v3.025c0.279-0.631,0.792-0.937,1.423-0.937c0.963,0,1.476,0.504,1.476,1.566v2.917
			h-0.702v-2.772c0-0.729-0.297-1.099-1.008-1.099c-0.657,0-1.188,0.504-1.188,1.368V21.266z"/>
		<path d="M63.517,15.558c0-0.261,0.216-0.459,0.495-0.459c0.297,0,0.504,0.198,0.504,0.459c0,0.262-0.207,0.459-0.504,0.459
			C63.733,16.017,63.517,15.819,63.517,15.558z M63.661,16.872h0.711v4.394h-0.711V16.872z"/>
		<path fill="#F50514" d="M74.516,20.536c-0.522,0.585-1.215,0.819-1.944,0.819c-1.17,0-2.107-0.72-2.107-1.863
			c0-0.883,0.558-1.449,1.432-1.863c-0.495-0.586-0.729-0.955-0.729-1.459c0-0.873,0.693-1.404,1.576-1.404
			c0.828,0,1.458,0.514,1.458,1.332c0,0.748-0.531,1.378-1.26,1.738l1.557,1.755c0.216-0.396,0.369-0.891,0.423-1.494h0.648
			c-0.099,0.811-0.324,1.458-0.639,1.963l1.099,1.206h-0.855L74.516,20.536z M74.111,20.096l-1.818-2.026
			c-0.675,0.333-1.107,0.747-1.107,1.414c0,0.756,0.621,1.27,1.396,1.27C73.201,20.753,73.724,20.536,74.111,20.096z M72.527,17.395
			c0.612-0.261,0.99-0.685,0.99-1.225c0-0.468-0.324-0.811-0.811-0.811c-0.504,0-0.855,0.343-0.855,0.847
			C71.851,16.62,72.094,16.908,72.527,17.395z"/>
		<path d="M83.894,15.576v5.689h-0.702v-5.689h-1.891v-0.612h4.465v0.612H83.894z"/>
		<path d="M88.077,21.266h-0.711v-4.394h0.711v0.774c0.279-0.585,0.747-0.864,1.333-0.864h0.216v0.685h-0.234
			c-0.774,0-1.314,0.459-1.314,1.341V21.266z"/>
		<path d="M91.713,15.558c0-0.261,0.217-0.459,0.495-0.459c0.298,0,0.505,0.198,0.505,0.459c0,0.262-0.207,0.459-0.505,0.459
			C91.93,16.017,91.713,15.819,91.713,15.558z M91.858,16.872h0.711v4.394h-0.711V16.872z"/>
		<path d="M96.466,21.266l-1.62-4.394h0.756l1.287,3.664l1.288-3.664h0.729l-1.629,4.394H96.466z"/>
		<path d="M103.558,20.653c-0.225,0.468-0.639,0.702-1.351,0.702c-0.909,0-1.413-0.45-1.413-1.17v-0.271
			c0-0.639,0.414-1.107,1.549-1.107h1.215v-0.369c0-0.756-0.261-1.044-0.963-1.044c-0.64,0-0.918,0.306-0.973,0.747h-0.684
			c0.107-0.811,0.603-1.359,1.719-1.359c1.081,0,1.603,0.495,1.603,1.566v2.917h-0.702V20.653z M103.558,19.69v-0.433h-1.152
			c-0.675,0-0.909,0.252-0.909,0.666v0.189c0,0.478,0.297,0.729,0.919,0.729C103.144,20.843,103.558,20.51,103.558,19.69z"/>
		<path d="M107.742,21.266h-0.711v-4.394h0.711V17.7c0.279-0.612,0.792-0.918,1.423-0.918c0.954,0,1.477,0.504,1.477,1.566v2.917
			h-0.702v-2.772c0-0.729-0.298-1.099-1.009-1.099c-0.657,0-1.188,0.504-1.188,1.368V21.266z"/>
		<path d="M116.284,20.545c-0.243,0.541-0.721,0.811-1.351,0.811c-1.009,0-1.711-0.657-1.711-1.944v-0.675
			c0-1.297,0.702-1.954,1.711-1.954c0.657,0,1.116,0.297,1.351,0.802v-2.891h0.702v6.572h-0.702V20.545z M113.935,18.736v0.656
			c0,0.829,0.369,1.351,1.17,1.351c0.729,0,1.18-0.459,1.18-1.386v-0.64c0-0.811-0.459-1.323-1.188-1.323
			C114.304,17.395,113.935,17.926,113.935,18.736z"/>
		<path d="M120.523,21.266h-0.711v-4.394h0.711v0.774c0.279-0.585,0.747-0.864,1.333-0.864h0.216v0.685h-0.234
			c-0.774,0-1.314,0.459-1.314,1.341V21.266z"/>
		<path d="M127.093,20.384c-0.252,0.666-0.747,0.972-1.396,0.972c-0.945,0-1.449-0.495-1.449-1.539v-2.944h0.702v2.8
			c0,0.729,0.297,1.099,0.981,1.099c0.639,0,1.161-0.504,1.161-1.368v-2.53h0.711v4.394h-0.711V20.384z"/>
		<path d="M131.34,21.266h-0.711v-4.394h0.711v0.838c0.271-0.622,0.783-0.928,1.404-0.928c0.702,0,1.152,0.306,1.314,0.937
			c0.288-0.621,0.828-0.937,1.495-0.937c0.909,0,1.404,0.504,1.404,1.566v2.917h-0.712v-2.772c0-0.729-0.27-1.099-0.927-1.099
			c-0.648,0-1.171,0.504-1.171,1.368v2.503h-0.711v-2.772c0-0.729-0.27-1.099-0.927-1.099c-0.648,0-1.171,0.504-1.171,1.368V21.266z
			"/>
	</g>
</g>
</svg>
