<?xml version="1.0" encoding="utf-8"?>
<!-- Generator: Adobe Illustrator 16.0.0, SVG Export Plug-In . SVG Version: 6.00 Build 0)  -->
<!DOCTYPE svg PUBLIC "-//W3C//DTD SVG 1.1//EN" "http://www.w3.org/Graphics/SVG/1.1/DTD/svg11.dtd">
<svg version="1.1" id="Layer_1" xmlns="http://www.w3.org/2000/svg" xmlns:xlink="http://www.w3.org/1999/xlink" x="0px" y="0px"
	 width="489.965px" height="492.629px" viewBox="0 0 489.965 492.629" enable-background="new 0 0 489.965 492.629"
	 xml:space="preserve">
<g>
	<linearGradient id="SVGID_1_" gradientUnits="userSpaceOnUse" x1="0" y1="159.2222" x2="265.7378" y2="159.2222">
		<stop  offset="0" style="stop-color:#2b70fa"/>
		<stop  offset="1" style="stop-color:#2b70fa"/>
	</linearGradient>
	<path fill="url(#SVGID_1_)" d="M174.234,318.444h-30.023c-9.352,0-16.961-7.605-16.961-16.961v-16.734
		c0-0.988-0.699-1.844-1.734-2.129c-10.41-2.836-20.449-7.008-29.836-12.395c-0.852-0.488-1.855-0.391-2.492,0.246l-11.953,11.953
		c-3.203,3.203-7.461,4.965-11.992,4.965c-4.527,0-8.789-1.762-11.992-4.965l-21.23-21.23c-3.203-3.203-4.969-7.465-4.969-11.992
		c0-4.531,1.766-8.792,4.969-11.992l11.949-11.953c0.641-0.637,0.738-1.641,0.246-2.492c-5.383-9.387-9.555-19.426-12.391-29.836
		c-0.285-1.035-1.141-1.734-2.129-1.734H16.961C7.609,191.195,0,183.586,0,174.235v-30.023c0-9.352,7.609-16.961,16.961-16.961
		h16.734c0.988,0,1.844-0.695,2.129-1.734c2.836-10.406,7.008-20.445,12.395-29.836c0.488-0.852,0.391-1.855-0.246-2.492
		L36.019,81.234c-3.203-3.199-4.969-7.461-4.969-11.992c0-4.527,1.766-8.789,4.969-11.992l21.23-21.23
		c3.203-3.203,7.461-4.965,11.992-4.965c4.531,0,8.793,1.762,11.996,4.969l11.949,11.949c0.637,0.637,1.637,0.734,2.492,0.246
		c9.387-5.387,19.422-9.555,29.832-12.395c1.043-0.285,1.738-1.141,1.738-2.129V16.961C127.248,7.609,134.857,0,144.209,0h30.023
		c9.352,0,16.961,7.609,16.961,16.961v16.734c0,0.988,0.695,1.844,1.734,2.125c10.406,2.84,20.445,7.012,29.832,12.398
		c0.855,0.488,1.855,0.391,2.496-0.246l11.949-11.953c6.629-6.625,17.359-6.629,23.986,0.004l2.246,2.246
		c7.012,7.008-3.586,17.625-10.604,10.605c-1.383-1.195-3.156-4.113-5.02-2.246l-11.951,11.95
		c-5.405,5.406-13.862,6.496-20.565,2.648c-8.281-4.75-17.137-8.43-26.313-10.934c-7.531-2.051-12.793-8.879-12.793-16.602V16.96
		c0-1.082-0.879-1.961-1.961-1.961h-30.023c-1.078,0-1.957,0.879-1.957,1.961v16.735c0,7.723-5.262,14.547-12.793,16.602
		c-9.18,2.504-18.035,6.18-26.316,10.93c-6.699,3.848-15.156,2.758-20.563-2.648L70.629,46.628
		c-0.477-0.477-1.016-0.574-1.387-0.574c-0.371,0-0.91,0.098-1.383,0.574l-21.234,21.23c-0.473,0.473-0.574,1.016-0.574,1.383
		c0,0.371,0.102,0.914,0.574,1.387l11.953,11.953c5.406,5.406,6.496,13.859,2.648,20.563c-4.75,8.285-8.43,17.137-10.934,26.316
		c-2.051,7.531-8.879,12.789-16.598,12.789H16.961c-1.082,0-1.961,0.883-1.961,1.961v30.023c0,1.082,0.879,1.961,1.961,1.961h16.734
		c7.719,0,14.547,5.258,16.602,12.789c2.5,9.184,6.18,18.035,10.93,26.316c3.848,6.703,2.758,15.156-2.648,20.563l-11.95,11.953
		c-0.477,0.473-0.574,1.016-0.574,1.387c0,0.367,0.102,0.91,0.574,1.387l21.23,21.227c0.766,0.768,2.008,0.771,2.773,0
		l11.949-11.949c5.406-5.404,13.863-6.494,20.566-2.646c8.281,4.75,17.133,8.43,26.313,10.934
		c7.531,2.051,12.793,8.879,12.793,16.602v16.73c0,1.082,0.879,1.961,1.957,1.961h30.023c1.082,0,1.961-0.879,1.961-1.961v-16.73
		c0-7.723,5.262-14.551,12.793-16.602c9.582-2.609,13.512,11.863,3.945,14.469c-1.039,0.285-1.738,1.141-1.738,2.133v16.73
		C191.195,310.834,183.586,318.444,174.234,318.444z"/>
	<linearGradient id="SVGID_2_" gradientUnits="userSpaceOnUse" x1="88.5347" y1="159.1978" x2="189.1841" y2="159.1978">
		<stop  offset="0" style="stop-color:#2b70fa"/>
		<stop  offset="1" style="stop-color:#2b70fa"/>
	</linearGradient>
	<path fill="url(#SVGID_2_)" d="M88.535,159.222c0-49.594,49.867-83.59,95.82-66.082c9.262,3.535,3.938,17.555-5.344,14.02
		c-36.266-13.824-75.48,13.098-75.48,52.063c0,31.695,26.695,57.484,59.016,55.589c9.883-0.598,10.809,14.391,0.883,14.977
		C122.675,232.187,88.535,199.687,88.535,159.222z"/>
	<g>
		<g>
			<g>
				<linearGradient id="SVGID_3_" gradientUnits="userSpaceOnUse" x1="108.5337" y1="407.4976" x2="489.9653" y2="407.4976">
					<stop  offset="0" style="stop-color:#2b70fa"/>
					<stop  offset="1" style="stop-color:#2b70fa"/>
				</linearGradient>
				<path fill="url(#SVGID_3_)" d="M116.099,492.629c-4.171,0-7.565-3.396-7.565-7.566c0-52.342,16.324-92.904,48.517-120.557
					c32.551-27.961,80.394-42.141,142.198-42.141c61.807,0,109.648,14.18,142.199,42.143
					c32.193,27.652,48.518,68.215,48.518,120.555c0,4.172-3.395,7.566-7.564,7.566H116.099L116.099,492.629z M299.25,337.497
					c-109.634,0-168.512,44.213-174.998,131.41l-0.639,8.594h351.279l-0.639-8.594C467.762,381.709,408.883,337.497,299.25,337.497z
					"/>
			</g>
		</g>
		<g>
			<g>
				<linearGradient id="SVGID_4_" gradientUnits="userSpaceOnUse" x1="204.002" y1="182.8384" x2="394.4985" y2="182.8384">
					<stop  offset="0" style="stop-color:#2b70fa"/>
					<stop  offset="1" style="stop-color:#2b70fa"/>
				</linearGradient>
				<path fill="url(#SVGID_4_)" d="M299.25,283.532c-52.52,0-95.249-46.685-95.249-104.068c0-55.481,40.948-97.319,95.249-97.319
					c54.301,0,95.248,41.841,95.248,97.325C394.499,236.851,351.77,283.532,299.25,283.532z M299.25,97.274
					c-46.424,0-80.12,34.568-80.12,82.195c0,49.041,35.942,88.938,80.12,88.938s80.119-39.897,80.119-88.938
					C379.37,132.61,344.926,97.274,299.25,97.274z"/>
			</g>
		</g>
	</g>
</g>
</svg>
